<svg width="512" height="512" viewBox="0 0 512 512" xmlns="http://www.w3.org/2000/svg">
  <defs>
    <!-- Glow filter for eyes -->
    <filter id="eyeGlow" x="-50%" y="-50%" width="200%" height="200%">
      <feGaussianBlur stdDeviation="8" result="coloredBlur"/>
      <feMerge>
        <feMergeNode in="coloredBlur"/>
        <feMergeNode in="SourceGraphic"/>
      </feMerge>
    </filter>
    <!-- Background gradient -->
    <linearGradient id="bgGradient" x1="0%" y1="0%" x2="100%" y2="100%">
      <stop offset="0%" style="stop-color:#1a1f3a;stop-opacity:0.4" />
      <stop offset="100%" style="stop-color:#0a0e27;stop-opacity:0.4" />
    </linearGradient>
  </defs>
  
  <!-- Dark background -->
  <rect width="512" height="512" rx="100" fill="#0a0e27"/>
  <rect width="512" height="512" rx="100" fill="url(#bgGradient)"/>
  
  <!-- Goblin head/face (simplified oval) -->
  <ellipse cx="256" cy="280" rx="130" ry="150" fill="#2d5016" opacity="0.85"/>
  <ellipse cx="256" cy="280" rx="120" ry="140" fill="#3a6b1f" opacity="0.9"/>
  
  <!-- Delivery cap/baseball hat (simplified) -->
  <path d="M 170 210 Q 170 180 200 150 Q 230 130 256 130 Q 282 130 312 150 Q 342 180 342 210 L 342 240 Q 330 230 256 230 Q 182 230 170 240 Z" 
        fill="#8b4513" opacity="0.95"/>
  
  <!-- Cap bill/brim (simplified ellipse) -->
  <ellipse cx="256" cy="240" rx="170" ry="45" fill="#654321" opacity="0.9"/>
  
  <!-- Cap logo area - simplified square patch -->
  <rect x="236" y="150" width="40" height="35" rx="5" fill="#ffffff" opacity="0.95"/>
  <rect x="240" y="154" width="32" height="27" rx="3" fill="#0a0e27" opacity="0.9"/>
  <!-- Simple "DD" logo using paths instead of text -->
  <path d="M 248 168 L 248 178 L 252 178 Q 256 178 256 173 Q 256 168 252 168 Z M 256 168 L 256 178 L 260 178 Q 264 178 264 173 Q 264 168 260 168 Z" fill="#ffffff"/>
  
  <!-- Large round goggles/glasses frames -->
  <circle cx="220" cy="280" r="38" fill="none" stroke="#1a1a1a" stroke-width="10" opacity="0.95"/>
  <circle cx="292" cy="280" r="38" fill="none" stroke="#1a1a1a" stroke-width="10" opacity="0.95"/>
  <!-- Goggle bridge/connector -->
  <rect x="254" y="275" width="4" height="10" fill="#1a1a1a" opacity="0.95"/>
  
  <!-- Goggle lens (slight tint) -->
  <circle cx="220" cy="280" r="32" fill="#1a1a1a" opacity="0.3"/>
  <circle cx="292" cy="280" r="32" fill="#1a1a1a" opacity="0.3"/>
  
  <!-- Glowing green eyes (visible through goggles) - main glow -->
  <circle cx="220" cy="280" r="22" fill="#22c55e" filter="url(#eyeGlow)" opacity="0.9">
    <animate attributeName="opacity" values="0.8;1;0.8" dur="2.5s" repeatCount="indefinite"/>
  </circle>
  <circle cx="292" cy="280" r="22" fill="#22c55e" filter="url(#eyeGlow)" opacity="0.9">
    <animate attributeName="opacity" values="0.8;1;0.8" dur="2.5s" begin="0.5s" repeatCount="indefinite"/>
  </circle>
  
  <!-- Eye highlights -->
  <circle cx="220" cy="280" r="14" fill="#4ade80"/>
  <circle cx="292" cy="280" r="14" fill="#4ade80"/>
  <circle cx="220" cy="280" r="6" fill="#ffffff"/>
  <circle cx="292" cy="280" r="6" fill="#ffffff"/>
  
  <!-- Mask/muzzle (simplified, very subtle) -->
  <ellipse cx="256" cy="330" rx="65" ry="40" fill="#1a1a1a" opacity="0.6"/>
  
  <!-- Subtle border glow -->
  <rect x="12" y="12" width="488" height="488" rx="88" fill="none" stroke="#22c55e" stroke-width="4" opacity="0.2"/>
</svg>
